<mxfile host="app.diagrams.net" modified="2021-03-23T09:48:11.196Z" agent="5.0 (Windows NT 10.0; Win64; x64) AppleWebKit/537.36 (KHTML, like Gecko) Chrome/89.0.4389.90 Safari/537.36" etag="NcXG5HT6aKDo8kNlgeUc" version="14.5.0" type="github">
  <diagram name="Page-1" id="e7e014a7-5840-1c2e-5031-d8a46d1fe8dd">
    <mxGraphModel dx="1422" dy="762" grid="1" gridSize="10" guides="1" tooltips="1" connect="1" arrows="1" fold="1" page="1" pageScale="1" pageWidth="1169" pageHeight="826" background="#ffffff" math="0" shadow="0">
      <root>
        <mxCell id="0" />
        <mxCell id="1" parent="0" />
        <mxCell id="2" value="" style="swimlane;whiteSpace=wrap" parent="1" vertex="1">
          <mxGeometry x="90" y="40" width="530" height="760" as="geometry">
            <mxRectangle x="164.5" y="128" width="70" height="23" as="alternateBounds" />
          </mxGeometry>
        </mxCell>
        <mxCell id="5" value="" style="ellipse;shape=startState;fillColor=#000000;strokeColor=#ff0000;" parent="2" vertex="1">
          <mxGeometry x="100" y="40" width="30" height="30" as="geometry" />
        </mxCell>
        <mxCell id="iwGw23g79Ynoken7nTGs-50" value="Patron" style="text;html=1;strokeColor=none;fillColor=none;align=center;verticalAlign=middle;whiteSpace=wrap;rounded=0;" parent="2" vertex="1">
          <mxGeometry x="100" width="80" height="20" as="geometry" />
        </mxCell>
        <mxCell id="iwGw23g79Ynoken7nTGs-58" value="Réactualisation de la page web" style="" parent="2" vertex="1">
          <mxGeometry x="310" y="620" width="200" height="50" as="geometry" />
        </mxCell>
        <mxCell id="iwGw23g79Ynoken7nTGs-60" value="Assignation de tâches aux employés&#xa;par jour" style="" parent="2" vertex="1">
          <mxGeometry x="50" y="450" width="200" height="50" as="geometry" />
        </mxCell>
        <mxCell id="iwGw23g79Ynoken7nTGs-59" value="" style="endArrow=open;strokeColor=#FF0000;endFill=1;rounded=0;" parent="2" edge="1">
          <mxGeometry relative="1" as="geometry">
            <mxPoint x="250" y="480" as="sourcePoint" />
            <mxPoint x="670" y="480" as="targetPoint" />
          </mxGeometry>
        </mxCell>
        <mxCell id="4" value="Système Planning Employé" style="swimlane;whiteSpace=wrap" parent="1" vertex="1">
          <mxGeometry x="620" y="40" width="480" height="760" as="geometry" />
        </mxCell>
        <mxCell id="8" value="Consultation planning employé" style="" parent="4" vertex="1">
          <mxGeometry x="40" y="62" width="200" height="50" as="geometry" />
        </mxCell>
        <mxCell id="iwGw23g79Ynoken7nTGs-42" value="" style="endArrow=open;strokeColor=#FF0000;endFill=1;rounded=0;entryX=0.5;entryY=0;entryDx=0;entryDy=0;exitX=0.5;exitY=1;exitDx=0;exitDy=0;" parent="4" source="8" target="iwGw23g79Ynoken7nTGs-44" edge="1">
          <mxGeometry relative="1" as="geometry">
            <mxPoint x="-434.8863636363635" y="170" as="sourcePoint" />
            <mxPoint x="150" y="140" as="targetPoint" />
          </mxGeometry>
        </mxCell>
        <mxCell id="iwGw23g79Ynoken7nTGs-44" value="" style="rhombus;whiteSpace=wrap;html=1;" parent="4" vertex="1">
          <mxGeometry x="140" y="160" width="55" height="50" as="geometry" />
        </mxCell>
        <mxCell id="iwGw23g79Ynoken7nTGs-45" value="[Si modification planning employé]" style="text;html=1;strokeColor=none;fillColor=none;align=center;verticalAlign=middle;whiteSpace=wrap;rounded=0;" parent="4" vertex="1">
          <mxGeometry x="180" y="150" width="240" height="20" as="geometry" />
        </mxCell>
        <mxCell id="iwGw23g79Ynoken7nTGs-47" value="Oui" style="text;html=1;strokeColor=none;fillColor=none;align=center;verticalAlign=middle;whiteSpace=wrap;rounded=0;" parent="4" vertex="1">
          <mxGeometry x="60" y="270" width="40" height="20" as="geometry" />
        </mxCell>
        <mxCell id="iwGw23g79Ynoken7nTGs-48" value="Non" style="text;html=1;strokeColor=none;fillColor=none;align=center;verticalAlign=middle;whiteSpace=wrap;rounded=0;" parent="4" vertex="1">
          <mxGeometry x="320" y="270" width="40" height="20" as="geometry" />
        </mxCell>
        <mxCell id="iwGw23g79Ynoken7nTGs-49" value="" style="endArrow=open;strokeColor=#FF0000;endFill=1;rounded=0;exitX=1;exitY=1;exitDx=0;exitDy=0;entryX=0.3;entryY=-0.06;entryDx=0;entryDy=0;entryPerimeter=0;" parent="4" source="iwGw23g79Ynoken7nTGs-44" target="iwGw23g79Ynoken7nTGs-52" edge="1">
          <mxGeometry relative="1" as="geometry">
            <mxPoint x="220" y="385.75" as="sourcePoint" />
            <mxPoint x="288.75" y="438.25" as="targetPoint" />
          </mxGeometry>
        </mxCell>
        <mxCell id="iwGw23g79Ynoken7nTGs-51" value="Création du nouvel horaire employé" style="" parent="4" vertex="1">
          <mxGeometry y="292" width="200" height="50" as="geometry" />
        </mxCell>
        <mxCell id="iwGw23g79Ynoken7nTGs-52" value="Ne rien faire" style="" parent="4" vertex="1">
          <mxGeometry x="225" y="290" width="200" height="50" as="geometry" />
        </mxCell>
        <mxCell id="iwGw23g79Ynoken7nTGs-46" value="" style="endArrow=open;strokeColor=#FF0000;endFill=1;rounded=0;exitX=0;exitY=1;exitDx=0;exitDy=0;entryX=0.5;entryY=0;entryDx=0;entryDy=0;" parent="4" source="iwGw23g79Ynoken7nTGs-44" target="iwGw23g79Ynoken7nTGs-51" edge="1">
          <mxGeometry relative="1" as="geometry">
            <mxPoint x="244.5" y="312" as="sourcePoint" />
            <mxPoint x="140" y="410" as="targetPoint" />
          </mxGeometry>
        </mxCell>
        <mxCell id="iwGw23g79Ynoken7nTGs-62" value="" style="ellipse;html=1;shape=endState;fillColor=#000000;strokeColor=#ff0000;" parent="4" vertex="1">
          <mxGeometry x="360" y="440" width="30" height="30" as="geometry" />
        </mxCell>
        <mxCell id="iwGw23g79Ynoken7nTGs-61" value="" style="endArrow=open;strokeColor=#FF0000;endFill=1;rounded=0;exitX=0.5;exitY=1;exitDx=0;exitDy=0;" parent="4" source="iwGw23g79Ynoken7nTGs-52" target="iwGw23g79Ynoken7nTGs-62" edge="1">
          <mxGeometry relative="1" as="geometry">
            <mxPoint x="221.25" y="389.5" as="sourcePoint" />
            <mxPoint x="340" y="570" as="targetPoint" />
          </mxGeometry>
        </mxCell>
        <mxCell id="iwGw23g79Ynoken7nTGs-64" value="Inscription du nouveau planning &#xa;dans la base donnée" style="" parent="4" vertex="1">
          <mxGeometry x="140" y="460" width="200" height="50" as="geometry" />
        </mxCell>
        <mxCell id="iwGw23g79Ynoken7nTGs-65" value="" style="rhombus;whiteSpace=wrap;html=1;" parent="4" vertex="1">
          <mxGeometry x="170" y="640" width="30" height="20" as="geometry" />
        </mxCell>
        <mxCell id="iwGw23g79Ynoken7nTGs-69" value="" style="endArrow=open;strokeColor=#FF0000;endFill=1;rounded=0;exitX=1;exitY=0.5;exitDx=0;exitDy=0;entryX=1;entryY=0.25;entryDx=0;entryDy=0;" parent="4" source="iwGw23g79Ynoken7nTGs-65" target="8" edge="1">
          <mxGeometry relative="1" as="geometry">
            <mxPoint x="-11" y="662" as="sourcePoint" />
            <mxPoint x="250" y="152.5" as="targetPoint" />
            <Array as="points">
              <mxPoint x="440" y="650" />
              <mxPoint x="440" y="75" />
            </Array>
          </mxGeometry>
        </mxCell>
        <mxCell id="iwGw23g79Ynoken7nTGs-70" value="Autre employé à mettre à jour" style="text;html=1;strokeColor=none;fillColor=none;align=center;verticalAlign=middle;whiteSpace=wrap;rounded=0;" parent="4" vertex="1">
          <mxGeometry x="210" y="630" width="180" height="20" as="geometry" />
        </mxCell>
        <mxCell id="9" value="" style="endArrow=open;strokeColor=#FF0000;endFill=1;rounded=0;exitX=1;exitY=0.5;exitDx=0;exitDy=0;" parent="1" source="iwGw23g79Ynoken7nTGs-53" target="8" edge="1">
          <mxGeometry relative="1" as="geometry" />
        </mxCell>
        <mxCell id="3" value="Site web" style="swimlane;whiteSpace=wrap;startSize=23;" parent="1" vertex="1">
          <mxGeometry x="370" y="40" width="250" height="760" as="geometry" />
        </mxCell>
        <mxCell id="7" value="Authentification&#xa;site web" style="" parent="3" vertex="1">
          <mxGeometry x="75.5" y="62" width="110" height="50" as="geometry" />
        </mxCell>
        <mxCell id="iwGw23g79Ynoken7nTGs-53" value="Site web avec&#xa;accès Patron" style="" parent="3" vertex="1">
          <mxGeometry x="75.5" y="162" width="110" height="50" as="geometry" />
        </mxCell>
        <mxCell id="iwGw23g79Ynoken7nTGs-54" value="" style="endArrow=open;strokeColor=#FF0000;endFill=1;rounded=0;exitX=0.5;exitY=1;exitDx=0;exitDy=0;entryX=0.5;entryY=0;entryDx=0;entryDy=0;" parent="3" source="7" target="iwGw23g79Ynoken7nTGs-53" edge="1">
          <mxGeometry relative="1" as="geometry">
            <mxPoint x="520" y="292" as="sourcePoint" />
            <mxPoint x="494.593253968254" y="358.44841269841277" as="targetPoint" />
          </mxGeometry>
        </mxCell>
        <mxCell id="6" value="" style="edgeStyle=elbowEdgeStyle;elbow=horizontal;verticalAlign=bottom;endArrow=open;endSize=8;strokeColor=#FF0000;endFill=1;rounded=0" parent="1" source="5" target="7" edge="1">
          <mxGeometry x="254.5" y="80" as="geometry">
            <mxPoint x="269.5" y="150" as="targetPoint" />
          </mxGeometry>
        </mxCell>
        <mxCell id="iwGw23g79Ynoken7nTGs-56" value="" style="endArrow=open;strokeColor=#FF0000;endFill=1;rounded=0;exitX=0.5;exitY=1;exitDx=0;exitDy=0;entryX=0.535;entryY=-0.04;entryDx=0;entryDy=0;entryPerimeter=0;" parent="1" source="iwGw23g79Ynoken7nTGs-51" target="iwGw23g79Ynoken7nTGs-60" edge="1">
          <mxGeometry relative="1" as="geometry">
            <mxPoint x="813.75" y="429.5" as="sourcePoint" />
            <mxPoint x="280" y="490" as="targetPoint" />
          </mxGeometry>
        </mxCell>
        <mxCell id="iwGw23g79Ynoken7nTGs-57" value="" style="endArrow=open;strokeColor=#FF0000;endFill=1;rounded=0;exitX=0;exitY=1;exitDx=0;exitDy=0;" parent="1" source="iwGw23g79Ynoken7nTGs-64" edge="1">
          <mxGeometry relative="1" as="geometry">
            <mxPoint x="610" y="580" as="sourcePoint" />
            <mxPoint x="510" y="660" as="targetPoint" />
          </mxGeometry>
        </mxCell>
        <mxCell id="iwGw23g79Ynoken7nTGs-68" value="" style="endArrow=open;strokeColor=#FF0000;endFill=1;rounded=0;entryX=0;entryY=0.5;entryDx=0;entryDy=0;" parent="1" target="iwGw23g79Ynoken7nTGs-65" edge="1">
          <mxGeometry relative="1" as="geometry">
            <mxPoint x="600" y="685" as="sourcePoint" />
            <mxPoint x="520" y="670" as="targetPoint" />
          </mxGeometry>
        </mxCell>
      </root>
    </mxGraphModel>
  </diagram>
</mxfile>
